<?xml version="1.0" encoding="UTF-8"?><svg id="a" xmlns="http://www.w3.org/2000/svg" width="1500" height="667" viewBox="0 0 1500 667"><g id="b"><g id="c"><polygon points="481.66 574.12 512.84 574.12 497.25 525.47 481.66 574.12"/><path d="m122.38,447.27v219.73h1212.91v-219.73H122.38Zm207.62,131.98c-.28,15.3-5.43,28.27-15.32,38.61s-22.72,15.69-37.83,16c-11.78-.28-21.67-3.29-29.54-9-7.81-5.31-13.67-11.66-17.31-18.86-1.09-2.31-2-4.43-2.88-6.45-.98-2.74-1.69-5.57-2.12-8.45-1-6-1.48-17.14-1.48-33.94s.49-28.26,1.48-34.16c.8-5.21,2.52-10.23,5.07-14.84,3.64-7.1,9.46-13.47,17.32-18.95,7.85-5.64,17.75-8.58,29.39-8.73,14.38.15,26.25,4.62,35.35,13.31,8.97,8.65,14.95,19.93,17.07,32.21l.77,4.13h-29.21l-.74-2.5c-1.48-5.13-4.39-9.74-8.38-13.29-4.24-3.42-9.55-5.24-15-5.15-3.86.01-7.67.92-11.12,2.65-2.99,1.57-5.6,3.77-7.66,6.44l-.18.22c-2.46,2.94-4.06,6.5-4.63,10.29-1,5-1.48,14.49-1.48,28.37s.49,23.33,1.46,28.1c.55,3.88,2.17,7.53,4.66,10.55l.18.22c2.02,2.63,4.62,4.75,7.6,6.21l.23.13c3.34,1.91,7.15,2.87,11,2.76,6.78.22,13.3-2.56,17.84-7.6,4.82-5,7.2-11.37,7.31-19.57v-4h-28.38v-27.5h56.53v32.79Zm201.91,53.39l-10.81-32.2h-47.83l-10.71,32.2h-29.83l53.15-151h22.64l53.16,151h-29.77Zm259.93,0h-28.1v-77.17l-23.83,56.53h-22.24l-23.77-56.3v76.94h-28.1v-151h25.7l37.66,88.36,36.92-88.36h25.79l-.03,151Zm223.68-123.45h-68v34.21h58v26.32h-58v35.41h68v27.51h-96.05v-151h96.08l-.03,27.55Zm166.23,124.64c-21.48,0-40.17-6.91-55.6-20.53l-2.56-2.26,18.32-21.7,2.67,2.26c10.42,8.85,23,13.4,37.4,13.53,21.27-.31,23.92-9.65,24-16.64.12-9-4.75-14-15.29-15.87-5.5-.77-11.66-1.67-18.37-2.65-12.82-2.19-22.71-7.19-29.48-14.89-7-7.93-10.53-17.69-10.53-29,0-13.52,4.45-24.61,13.22-33,8.44-8.23,20.47-12.48,35.74-12.63,18.09.41,34,5.65,47.32,15.57l2.64,2-15.53,23.65-2.94-2c-9.62-6.63-20.98-10.27-32.66-10.47-5.69,0-10.31,1.41-14,4.31s-5.53,7.06-5.64,12.92c.05,3.32,1.4,6.49,3.76,8.82,2.61,2.87,7,4.9,13.12,6.06,3.73.65,9,1.41,15.48,2.25,14,2,24.48,7.29,31.27,15.81,6.64,8.22,10.19,18.5,10.05,29.07-.73,29.72-18.36,44.97-52.36,45.39h-.03Z"/></g><g id="d"><path d="m102.85,393.64c-61.71,0-102.85-40.75-102.85-79.12V79.16C0,40.79,41.54,0,102.85,0s100.08,40.75,100.08,79.12v72.78h-82.68v-61.27c0-9.89-7.91-16.22-17.4-16.22-10.68,0-18.2,6.33-18.2,16.22v212.42c0,9.89,7.91,16.22,18.2,16.22,9.49,0,17.4-6.33,17.4-16.22v-61.31h82.68v72.78c.39,38.37-39.16,79.12-100.08,79.12"/><path d="m307.36,218.79v167.72h-80.7V101.71h75.56l5.14,30.06c11.87-17.8,28.48-30.06,65.27-30.06v67.64c-43.91-.4-65.27,23.73-65.27,49.44"/><path d="m486.16,391.26c-53.8,0-97.31-27.69-97.31-69.62v-150.31c0-42.73,43.9-70,97.31-70s97.3,27.69,97.3,70v149.91c0,42.73-43.9,70-97.3,70m17-216.38c0-9.49-7.91-13.84-17.41-13.84s-17,4.35-17,13.84v142.83c0,9.49,7.12,13.84,17,13.84s17.41-4.35,17.41-13.84v-142.83Z"/><path d="m698.18,391.26c-58.94,0-93.75-27.69-93.75-69.62v-28.87h73.18v24.12c0,9.5,7.12,16.22,19,16.22s18.59-4.75,18.59-21c0-25.32-18.59-32.83-61.31-55-39.56-19.77-48.66-47.86-48.66-77.92,0-58.55,42.33-77.14,92.17-77.14,54.19,0,91.38,27.69,91.38,70v26.1h-72.78v-21.68c0-9.5-5.14-15-17-15-12.66,0-18.59,5.53-18.59,19.38,0,21,11.87,22.94,42.72,39.16,58.15,28.88,67.25,65.27,67.25,94.54.39,40-26.11,76.74-92.17,76.74"/><path d="m902.69,391.26c-58.94,0-93.75-27.69-93.75-69.62v-28.87h73.18v24.12c0,9.5,7.12,16.22,19,16.22s18.59-4.75,18.59-21c0-25.32-18.59-32.83-61.31-55-39.56-19.77-48.66-47.86-48.66-77.92,0-58.55,42.33-77.14,92.17-77.14,54.19,0,91.38,27.69,91.38,70v26.1h-72.8v-21.68c0-9.5-5.14-15-17-15-12.66,0-18.59,5.53-18.59,19.38,0,21,11.87,22.94,42.72,39.16,58.15,28.88,67.25,65.27,67.25,94.54.4,40-26.5,76.74-92.17,76.74"/><polygon points="1101.27 74.41 1101.27 160.65 1162.18 160.65 1162.18 230.67 1101.27 230.67 1101.27 386.12 1017.8 386.12 1017.8 7.17 1182.75 7.17 1182.75 74.81 1101.27 74.41"/><path d="m1201.35,74.41V7.17h80.3v67.64l-80.3-.4Zm0,32.44h80.3v279.67h-80.3V106.85Z"/><path d="m1416.14,163.41v145.18c0,7.91,7.91,13.84,17,13.84h21v64.09h-38.38c-51,0-79.5-35.21-79.5-70.81v-152.3h-34.82v-56.56h34.82v-48.26h79.9v48.65h41.54v57l-41.56-.83Z"/><path d="m1500,122.23c0,8.28-6.72,15-15.01,14.99-8.28,0-15-6.72-14.99-15.01s6.72-15,15.01-14.99c5.36,0,10.32,2.87,12.99,7.52,1.32,2.27,2.01,4.86,2,7.49Zm-2.91,0c0-6.68-5.42-12.08-12.1-12.08s-12.08,5.42-12.08,12.1c0,6.68,5.42,12.08,12.1,12.08,3.2,0,6.27-1.28,8.54-3.54,2.31-2.24,3.59-5.34,3.54-8.56Zm-18.9-8h7.17c1.57-.14,3.13.3,4.41,1.22.92.84,1.42,2.05,1.37,3.3.03,1.02-.33,2.01-1,2.78-.89.89-2.04,1.49-3.28,1.71.49.17.95.42,1.35.75.5.48.93,1.03,1.28,1.63l2.59,4.64h-4.71c-.86-1.91-1.9-3.74-3.09-5.47-.37-.52-.94-.85-1.57-.9-.16,0-.33.03-.49.06v6.31h-4l-.03-16.03Zm4,6.79h1.73c.85.08,1.71-.12,2.44-.56.8-.64.92-1.81.28-2.6-.08-.1-.18-.2-.28-.28-.68-.44-1.49-.64-2.3-.56h-1.89l.02,4Z"/></g></g></svg>